<svg width="225" height="29" viewBox="0 0 225 29" fill="none" xmlns="http://www.w3.org/2000/svg">
<path d="M15.9307 5.47738C15.6377 5.42756 15.3936 5.27809 15.1982 5.02899C15.0029 4.77989 14.9053 4.50587 14.9053 4.20695V1.36718C14.9053 0.993526 15.0518 0.657238 15.3447 0.358314C15.6621 0.109211 16.0161 0.0220258 16.4068 0.0967566C19.2877 0.594962 21.7292 1.90275 23.7312 4.02012C24.7567 5.11618 25.5868 6.36169 26.2216 7.75667C26.3192 7.93104 26.3619 8.13032 26.3497 8.35451C26.3375 8.5787 26.2704 8.79044 26.1483 8.98972C26.0262 9.18901 25.8736 9.3447 25.6905 9.45679C25.5074 9.56889 25.306 9.62494 25.0863 9.62494H21.9734C21.7536 9.62494 21.5461 9.56889 21.3508 9.45679C21.1555 9.3447 20.9968 9.18901 20.8747 8.98972C20.5329 8.46661 20.2155 8.05559 19.9225 7.75667C18.8239 6.61079 17.4932 5.85103 15.9307 5.47738ZM12.1952 0.358314C12.4882 0.657238 12.6347 0.993526 12.6347 1.36718V4.20695C12.6347 4.50587 12.537 4.77989 12.3417 5.02899C12.1464 5.27809 11.9022 5.42756 11.6093 5.47738C10.0467 5.85103 8.7161 6.61079 7.61744 7.75667C6.10371 9.42566 5.34685 11.5119 5.34685 14.0154C5.34685 16.5189 6.10371 18.6051 7.61744 20.2741C8.66727 21.42 9.99788 22.1797 11.6093 22.5534C11.9022 22.6032 12.1464 22.7527 12.3417 23.0018C12.537 23.2509 12.6347 23.5249 12.6347 23.8238V26.6636C12.6347 27.0621 12.476 27.3984 12.1586 27.6724C11.9145 27.8717 11.6459 27.9714 11.3529 27.9714H11.1332C8.20339 27.4233 5.76191 26.1031 3.80872 24.0106C1.26957 21.3452 0 18.0135 0 14.0154C0 10.0173 1.26957 6.68552 3.80872 4.02012C5.78632 1.90275 8.22781 0.594962 11.1332 0.0967566C11.5238 0.0220258 11.8778 0.109211 12.1952 0.358314ZM27.5033 13.2494C27.5278 13.4238 27.54 13.6853 27.54 14.0341C27.54 14.5821 27.5033 15.2173 27.4301 15.9397C27.0639 19.1033 25.8309 21.7936 23.7312 24.0106C21.7292 26.128 19.2877 27.4482 16.4068 27.9714H16.1871C15.8941 27.9714 15.6133 27.8717 15.3447 27.6724C15.0518 27.3735 14.9053 27.0372 14.9053 26.6636V23.8238C14.9053 23.5249 15.0029 23.2509 15.1982 23.0018C15.3936 22.7527 15.6377 22.6032 15.9307 22.5534C17.5421 22.1797 18.8727 21.42 19.9225 20.2741C20.777 19.3524 21.3874 18.2937 21.7536 17.098H13.9897C13.6235 17.098 13.3183 16.9735 13.0742 16.7244C12.83 16.4753 12.7079 16.1639 12.7079 15.7902V13.1373C12.7079 12.7885 12.83 12.4834 13.0742 12.2218C13.3183 11.9603 13.6235 11.8295 13.9897 11.8295H26.2216C26.5634 11.8295 26.8563 11.9478 27.1005 12.1845C27.3446 12.4211 27.4789 12.7138 27.5033 13.0626V13.2494ZM52.1648 17.0607L57.6947 25.6921C57.9633 26.1405 57.9755 26.5888 57.7314 27.0372C57.6337 27.2365 57.4811 27.3984 57.2736 27.523C57.0661 27.6475 56.8524 27.7098 56.6327 27.7098H53.3001C53.0803 27.7098 52.8728 27.6537 52.6775 27.5417C52.4822 27.4296 52.3357 27.2863 52.238 27.112L46.6714 18.1069H40.1527V26.402C40.1527 26.7508 40.0245 27.0559 39.7681 27.3175C39.5118 27.579 39.2127 27.7098 38.8709 27.7098H36.0876C35.7458 27.7098 35.4467 27.579 35.1904 27.3175C34.934 27.0559 34.8058 26.7508 34.8058 26.402V14.1088C34.8058 13.76 34.934 13.4549 35.1904 13.1933C35.4467 12.9318 35.7458 12.801 36.0876 12.801H47.3673C49.5158 12.801 50.944 12.1782 51.6521 10.9327C51.8962 10.5342 52.0183 9.96123 52.0183 9.21392C52.0183 8.04313 51.6399 7.12145 50.883 6.44888C50.1017 5.72648 48.9786 5.36528 47.5138 5.36528H36.0876C35.7458 5.36528 35.4467 5.2345 35.1904 4.97294C34.934 4.71139 34.8058 4.40623 34.8058 4.05749V1.36718C34.8058 1.01844 34.934 0.713286 35.1904 0.451728C35.4467 0.19017 35.7458 0.0593912 36.0876 0.0593912H47.8434C50.6999 0.0593912 52.9827 0.881431 54.6917 2.52551C56.474 4.16959 57.3652 6.39906 57.3652 9.21392C57.3652 11.0324 56.9745 12.583 56.1932 13.8659C55.412 15.1488 54.2767 16.1265 52.7874 16.7991L52.1648 17.0607ZM89.4609 25.9536C89.6318 26.3522 89.5891 26.757 89.3328 27.168C89.0764 27.579 88.7285 27.7845 88.289 27.7845H63.8986C63.6788 27.7845 63.4713 27.7285 63.276 27.6164C63.0807 27.5043 62.9342 27.3611 62.8365 27.1867C62.568 26.7881 62.5313 26.3771 62.7267 25.9536L63.8619 23.2259C63.9596 22.9768 64.1183 22.7776 64.338 22.6281C64.5578 22.4786 64.7897 22.4039 65.0339 22.4039H82.0998L76.0938 7.75667L71.1864 19.7136C71.0887 19.9627 70.9362 20.1558 70.7286 20.2928C70.5211 20.4298 70.2831 20.4983 70.0145 20.4983H66.9382C66.4743 20.4983 66.1081 20.299 65.8395 19.9004C65.7419 19.7261 65.6809 19.5268 65.6564 19.3026C65.632 19.0784 65.6564 18.8667 65.7297 18.6674L73.164 0.88143C73.2617 0.632328 73.4143 0.433045 73.6218 0.283583C73.8293 0.134122 74.0674 0.0593912 74.3359 0.0593912H77.8517C78.1202 0.0593912 78.3583 0.134122 78.5658 0.283583C78.7733 0.433045 78.9259 0.632328 79.0236 0.88143L89.4609 25.9536ZM108.299 0.0593912C111.205 0.0593912 113.549 0.912568 115.331 2.61892C117.113 4.32528 118.004 6.59834 118.004 9.43811C118.004 12.2779 117.125 14.5447 115.368 16.2386C113.61 17.9325 111.254 18.7795 108.299 18.7795H101.305V26.402C101.305 26.7508 101.176 27.0559 100.92 27.3175C100.664 27.579 100.365 27.7098 100.023 27.7098H97.2395C96.8977 27.7098 96.5986 27.579 96.3423 27.3175C96.0859 27.0559 95.9577 26.7508 95.9577 26.402V14.8187C95.9577 14.47 96.0859 14.1648 96.3423 13.9033C96.5986 13.6417 96.8977 13.5109 97.2395 13.5109H108.08C109.715 13.5109 110.887 13.1497 111.595 12.4273C112.303 11.7797 112.657 10.7957 112.657 9.47548C112.657 8.15523 112.291 7.14014 111.559 6.43019C110.826 5.72025 109.667 5.36528 108.08 5.36528H97.2395C96.8977 5.36528 96.5986 5.2345 96.3423 4.97294C96.0859 4.71139 95.9577 4.40623 95.9577 4.05749V1.36718C95.9577 1.01844 96.0859 0.713286 96.3423 0.451728C96.5986 0.19017 96.8977 0.0593912 97.2395 0.0593912H108.299ZM126.259 9.62494C125.917 9.62494 125.618 9.49416 125.362 9.2326C125.105 8.97104 124.977 8.66589 124.977 8.31715V1.36718C124.977 1.01844 125.105 0.713286 125.362 0.451728C125.618 0.19017 125.917 0.0593912 126.259 0.0593912H129.042C129.409 0.0593912 129.714 0.19017 129.958 0.451728C130.202 0.713286 130.324 1.01844 130.324 1.36718V8.31715C130.324 8.66589 130.202 8.97104 129.958 9.2326C129.714 9.49416 129.409 9.62494 129.042 9.62494H126.259ZM146.145 0.0593912C146.487 0.0593912 146.786 0.19017 147.042 0.451728C147.298 0.713286 147.427 1.01844 147.427 1.36718V26.4767C147.427 26.8255 147.298 27.1306 147.042 27.3922C146.786 27.6537 146.487 27.7845 146.145 27.7845H143.362C142.995 27.7845 142.69 27.6537 142.446 27.3922C142.202 27.1306 142.08 26.8255 142.08 26.4767V16.6123H130.324V26.4767C130.324 26.8255 130.202 27.1306 129.958 27.3922C129.714 27.6537 129.409 27.7845 129.042 27.7845H126.259C125.917 27.7845 125.618 27.6537 125.362 27.3922C125.105 27.1306 124.977 26.8255 124.977 26.4767V12.5021C124.977 12.1533 125.105 11.8482 125.362 11.5866C125.618 11.3251 125.917 11.1943 126.259 11.1943H142.08V1.36718C142.08 1.01844 142.202 0.713286 142.446 0.451728C142.69 0.19017 142.995 0.0593912 143.362 0.0593912H146.145ZM160.662 11.1569C161.028 11.1569 161.333 11.2877 161.578 11.5493C161.822 11.8108 161.944 12.1284 161.944 12.5021V26.4767C161.944 26.8255 161.822 27.1306 161.578 27.3922C161.333 27.6537 161.028 27.7845 160.662 27.7845H157.879C157.537 27.7845 157.238 27.6537 156.981 27.3922C156.725 27.1306 156.597 26.8255 156.597 26.4767V12.5021C156.597 12.1284 156.725 11.8108 156.981 11.5493C157.238 11.2877 157.537 11.1569 157.879 11.1569H160.662ZM160.662 0.0593912C161.028 0.0593912 161.333 0.19017 161.578 0.451728C161.822 0.713286 161.944 1.01844 161.944 1.36718V8.27978C161.944 8.65344 161.822 8.97104 161.578 9.2326C161.333 9.49416 161.028 9.62494 160.662 9.62494H157.879C157.537 9.62494 157.238 9.49416 156.981 9.2326C156.725 8.97104 156.597 8.65344 156.597 8.27978V1.36718C156.597 1.01844 156.725 0.713286 156.981 0.451728C157.238 0.19017 157.537 0.0593912 157.879 0.0593912H160.662ZM184.628 5.40265C184.31 5.35283 184.048 5.20336 183.84 4.95426C183.633 4.70516 183.529 4.41869 183.529 4.09486V1.36718C183.529 0.943706 183.675 0.607417 183.968 0.358314C184.261 0.109211 184.603 0.00957064 184.994 0.0593912C187.094 0.408135 188.961 1.1679 190.597 2.33868C192.721 3.90803 194.223 5.98804 195.102 8.57871C195.248 9.00218 195.199 9.40074 194.955 9.7744C194.711 10.1481 194.357 10.3349 193.893 10.3349H190.963C190.695 10.3349 190.451 10.2664 190.231 10.1294C190.011 9.99237 189.852 9.79931 189.755 9.55021C189.218 8.25487 188.4 7.2211 187.301 6.44888C186.447 5.90085 185.555 5.55211 184.628 5.40265ZM193.893 17.808C194.357 17.808 194.711 17.9948 194.955 18.3684C195.199 18.7421 195.248 19.1407 195.102 19.5641C194.223 22.1548 192.721 24.2348 190.597 25.8042C188.961 26.9749 187.094 27.7347 184.994 28.0835H184.811C184.469 28.0835 184.188 27.9714 183.968 27.7472C183.675 27.523 183.529 27.1991 183.529 26.7757V24.048C183.529 23.7242 183.627 23.4377 183.822 23.1886C184.017 22.9395 184.274 22.79 184.591 22.7402C185.616 22.5907 186.52 22.242 187.301 21.694C188.4 20.9217 189.218 19.888 189.755 18.5926C189.852 18.3435 190.011 18.1505 190.231 18.0135C190.451 17.8765 190.695 17.808 190.963 17.808H193.893ZM180.782 0.507776C181.1 0.756879 181.258 1.09317 181.258 1.51664V4.43115C181.258 4.70516 181.167 4.96049 180.984 5.19714C180.801 5.43378 180.575 5.60193 180.306 5.70157C179.964 5.7763 179.696 5.86348 179.5 5.96313C178.524 6.41151 177.694 7.02181 177.01 7.79403C175.619 9.38829 174.923 11.4745 174.923 14.0527C174.923 16.631 175.619 18.7296 177.01 20.3488C177.865 21.3452 178.963 22.0427 180.306 22.4413C180.575 22.516 180.801 22.6717 180.984 22.9083C181.167 23.145 181.258 23.4003 181.258 23.6743V26.6262C181.258 27.0497 181.1 27.386 180.782 27.6351C180.563 27.8344 180.282 27.934 179.94 27.934H179.684C177.071 27.3611 174.862 26.0657 173.055 24.048C170.736 21.3826 169.576 18.0571 169.576 14.0714C169.576 10.0858 170.736 6.76026 173.055 4.09486C174.862 2.05221 177.071 0.769334 179.684 0.246218C180.074 0.146577 180.44 0.233763 180.782 0.507776ZM203.832 9.62494C203.491 9.62494 203.191 9.49416 202.935 9.2326C202.679 8.97104 202.551 8.66589 202.551 8.31715V1.36718C202.551 1.01844 202.679 0.713286 202.935 0.451728C203.191 0.19017 203.491 0.0593912 203.832 0.0593912H206.616C206.982 0.0593912 207.287 0.19017 207.531 0.451728C207.775 0.713286 207.897 1.01844 207.897 1.36718V8.31715C207.897 8.66589 207.775 8.97104 207.531 9.2326C207.287 9.49416 206.982 9.62494 206.616 9.62494H203.832ZM223.718 0.0593912C224.06 0.0593912 224.359 0.19017 224.615 0.451728C224.872 0.713286 225 1.01844 225 1.36718V26.4767C225 26.8255 224.872 27.1306 224.615 27.3922C224.359 27.6537 224.06 27.7845 223.718 27.7845H220.935C220.569 27.7845 220.264 27.6537 220.019 27.3922C219.775 27.1306 219.653 26.8255 219.653 26.4767V16.6123H207.897V26.4767C207.897 26.8255 207.775 27.1306 207.531 27.3922C207.287 27.6537 206.982 27.7845 206.616 27.7845H203.832C203.491 27.7845 203.191 27.6537 202.935 27.3922C202.679 27.1306 202.551 26.8255 202.551 26.4767V12.5021C202.551 12.1533 202.679 11.8482 202.935 11.5866C203.191 11.3251 203.491 11.1943 203.832 11.1943H219.653V1.36718C219.653 1.01844 219.775 0.713286 220.019 0.451728C220.264 0.19017 220.569 0.0593912 220.935 0.0593912H223.718Z" fill="white"/>
</svg>
